<svg width="136" height="129" viewBox="0 0 136 129" fill="none" xmlns="http://www.w3.org/2000/svg">
<path fill-rule="evenodd" clip-rule="evenodd" d="M96.7785 50.2382C94.6022 58.3843 89.3715 64.9641 82.5333 69.167C76.7712 68.9822 70.1782 67.2008 65.4306 64.702C63.6951 63.7889 62.0357 62.7128 60.5369 61.4471C59.6372 60.6875 58.5164 60.2841 57.3437 60.6102C55.113 61.2309 54.5357 63.8976 54.0055 65.8312C53.9355 66.0872 53.7966 66.6078 53.6396 67.0836C51.2434 65.3191 49.1794 62.5389 47.5405 60.2104C45.8787 57.8493 44.3159 55.3891 42.5333 53.1174C40.9354 51.08 38.9548 48.9374 36.4982 47.9652C35.8618 47.7128 35.1673 47.685 34.5188 47.9157C32.7531 48.5449 32.4547 50.4411 32.3533 52.0546C32.2977 52.9205 32.2832 53.7913 32.2615 54.6609C29.0646 48.1162 28.0417 40.5884 29.8593 33.1367C51.4029 41.8227 73.7097 47.5232 96.7785 50.2382Z" fill="#539E83"/>
<path fill-rule="evenodd" clip-rule="evenodd" d="M91.8752 55.5353C89.1252 61.4652 84.5684 65.9846 79.124 68.888C76.1892 68.5111 73.1783 67.7913 70.409 66.8312C70.7363 66.4169 70.9633 65.8553 71.0298 65.2249C70.7375 65.9157 70.2278 66.4157 69.6336 66.5534C69.0696 66.3457 68.5177 66.1283 67.979 65.9012C67.5732 65.4 67.322 64.6693 67.3365 63.859C67.3377 63.7454 67.345 63.6331 67.3571 63.5244C67.1928 63.9097 67.0974 64.3541 67.0877 64.8276C67.0841 65.0727 67.1046 65.3119 67.1457 65.5401C66.5527 65.272 65.9778 64.993 65.4307 64.7044C63.6952 63.7913 62.0358 62.7152 60.537 61.4495C59.6372 60.6899 58.5165 60.2865 57.3438 60.6126C55.1131 61.2334 54.5358 63.9 54.0056 65.8336C53.9355 66.0896 53.7966 66.6102 53.6396 67.086C52.6167 66.3336 51.6566 65.3952 50.7604 64.3867C50.8438 64.4338 50.9319 64.4737 51.0225 64.5039C52.0611 64.8505 53.287 63.9858 53.7604 62.5715C53.845 62.3203 53.8993 62.0691 53.9259 61.8239C53.4053 63.1065 52.2532 63.8638 51.2701 63.5365C50.4174 63.2503 49.9573 62.2321 50.0829 61.0933C50.0539 61.1645 50.0273 61.237 50.0032 61.3119C49.7351 62.1114 49.764 62.9157 50.0273 63.5268C49.3425 62.6947 48.7024 61.8384 48.1107 61.016C48.3558 60.7744 48.5768 60.4809 48.7544 60.144C48.9742 59.7237 49.1034 59.2865 49.1445 58.871C49.1022 58.9737 49.0551 59.0751 49.0007 59.1766C48.6867 59.7732 48.2399 60.2346 47.7544 60.5136C47.7544 60.5136 45.7048 57.5292 44.7785 56.1911C45.2254 55.6536 45.4754 55.0365 45.5032 54.4701C45.3305 54.8493 45.0684 55.2189 44.7254 55.5437C44.6433 55.6198 44.5611 55.6911 44.4766 55.7575C43.8498 54.8626 43.2085 53.9773 42.5358 53.1198C42.0901 52.5498 41.6106 51.9713 41.1022 51.4121C41.7085 50.906 42.0587 50.2418 42.0394 49.6162C41.7628 50.1283 41.2713 50.5969 40.6275 50.9085C39.4283 49.6742 38.0599 48.5848 36.5007 47.9676C35.8643 47.7152 35.1698 47.6874 34.5213 47.9181C33.5104 48.278 32.9814 49.0534 32.6927 49.9531C31.7882 46.8408 31.3969 43.5413 31.6227 40.1403C31.6589 39.5836 31.9403 39.1222 32.415 38.8299C32.8896 38.5389 33.4295 38.5002 33.9403 38.72C39.8932 41.278 45.9718 43.5341 52.1566 45.4688C52.601 45.6077 52.9331 45.8891 53.1445 46.3058C53.3558 46.7213 53.3848 47.156 53.2338 47.5969C53.2121 47.6621 53.1928 47.7285 53.1759 47.7949C53.1324 47.9652 53.107 48.1403 53.0962 48.3155C53.0237 49.673 53.9524 50.9845 54.8848 51.8807C56.3848 53.3227 58.4331 54.2937 60.4331 54.8058C62.4331 55.3167 64.6964 55.4471 66.7025 54.9012C67.9501 54.5618 69.3933 53.8565 69.9827 52.6307C70.0588 52.4725 70.1191 52.307 70.1626 52.1355C70.1832 52.0582 70.1988 51.9797 70.2121 51.9012C70.287 51.4399 70.5189 51.0691 70.903 50.8022C71.2858 50.5341 71.7146 50.4435 72.1735 50.5329C78.2423 51.7152 84.368 52.5969 90.525 53.179C91.0781 53.2309 91.5322 53.5244 91.81 54.0075C92.0842 54.4906 92.1083 55.0292 91.8752 55.5353ZM82.3571 61.2466C82.2641 61.4061 82.1433 61.5474 81.9948 61.6633C81.1373 62.3433 79.6916 61.9459 78.7641 60.7756C78.2738 60.1561 78.0286 59.4459 78.0322 58.8118C77.5793 59.58 77.7508 60.7744 78.5177 61.743C79.4452 62.9133 80.8921 63.3106 81.7496 62.6319C82.153 62.3119 82.3535 61.8094 82.3571 61.2466ZM76.5225 63.7865C76.3124 64.2201 75.9791 64.545 75.5491 64.6839C74.508 65.0208 73.2919 64.1428 72.8317 62.7225C72.6868 62.2732 72.6348 61.8239 72.6638 61.4073C72.3667 62.0232 72.3148 62.8565 72.5841 63.6899C73.0443 65.1102 74.2605 65.987 75.3015 65.6512C76.0129 65.4218 76.4585 64.6838 76.5225 63.7865Z" fill="#FDD161"/>
<path fill-rule="evenodd" clip-rule="evenodd" d="M113.677 54.9921L113.956 55.1272C114.716 55.494 115.482 55.9381 116.241 56.4486L116.331 56.5101L116.369 56.5366L116.873 56.8902C117.078 57.0386 117.283 57.1907 117.485 57.3488L117.747 57.5551L118.358 58.0559L118.958 58.5784L119.09 58.6991C120.009 59.5329 120.894 60.4476 121.701 61.4154C122.245 62.0585 122.757 62.7235 123.233 63.4028C123.233 63.4028 123.543 63.8553 123.683 64.0725L124.099 64.7278L124.27 65.015C124.365 65.1743 124.457 65.3348 124.547 65.4953L124.774 65.914C125.455 67.1943 125.973 68.4855 126.283 69.7368L126.335 69.9468C126.974 72.7524 126.514 75.3143 124.349 76.9916C104.734 92.1792 81.8442 103.656 61.5923 107.005C45.154 109.724 30.4712 107.069 20.7593 96.6561C35.4276 100.417 49.7836 96.9337 63.7425 89.323C78.4047 81.3273 92.6227 68.7799 106.307 55.3251C108.122 53.5428 110.831 53.6888 113.677 54.9921ZM112.962 63.0843C115.103 61.1125 109.762 56.1505 107.031 59.0394C85.5464 81.7774 60.4168 98.3721 31.4954 100.417C58.3381 102.407 85.3345 88.5229 112.962 63.0843Z" fill="#FDD161"/>
<path fill-rule="evenodd" clip-rule="evenodd" d="M126.115 68.4005C125.943 67.9474 125.751 67.4955 125.539 67.0424C123.504 62.7007 119.606 58.3782 115.512 55.787L115.08 55.5199C115.885 55.3554 116.772 55.2755 117.761 55.3303C120.149 55.4603 122.374 56.2867 124.504 57.3014C133.544 55.7417 134.866 48.6098 129.523 44.4828C129.521 43.9057 133.204 41.5768 133.969 42.8611C139.115 47.7739 133.465 56.4321 126.372 58.5403L125.645 58.7562L125.845 59.4764C126.615 62.2691 126.845 64.4226 126.682 66.1063C126.596 66.9971 126.398 67.7531 126.115 68.4005Z" fill="#539E83"/>
<path fill-rule="evenodd" clip-rule="evenodd" d="M34.7587 95.885C25.3483 90.7281 13.0425 87.3482 8.28877 82.2095C6.85927 80.6652 18.2359 82.3923 17.3552 79.94C16.5447 77.6778 4.21349 71.6566 0.659128 64.6579C-0.174342 63.0149 7.88779 64.976 11.6008 64.9127C17.0669 77.2329 24.1199 87.8381 34.7587 95.885ZM71.6253 107.4C81.8353 105.012 91.3971 100.882 100.358 95.144C99.8082 103.301 104.333 106.693 110.04 108.971C109.677 110.26 108.664 110.552 106.606 109.6C98.3411 105.77 86.5805 105.299 71.6253 107.4ZM9.35363 49.0115C10.9176 66.1791 21.2245 84.7605 35.969 96.2068C53.9915 94.3871 67.848 85.6381 85.6307 71.3824C79.0695 71.876 66.8655 69.8417 58.9209 63.0929C55.8438 60.4785 56.6712 71.681 53.2659 69.643C45.8398 65.1979 41.4495 52.2646 35.4626 49.8805C33.2759 49.009 36.1398 61.8875 31.5593 62.1215C22.9532 62.5615 19.5976 53.1946 13.097 47.533C9.83336 44.6918 8.90782 44.1141 9.35363 49.0115Z" fill="#539E83"/>
<path fill-rule="evenodd" clip-rule="evenodd" d="M17.5776 120.838C18.225 120.838 18.7506 121.361 18.7506 122.01C18.7506 122.659 18.225 123.185 17.5776 123.185H13.1567C12.5081 123.185 11.9825 122.659 11.9825 122.01V117.042C11.9825 116.397 12.5093 115.871 13.1555 115.871H22.0141C22.6627 115.871 23.1896 116.396 23.1896 117.042V126.985C23.1896 127.634 22.6627 128.16 22.0141 128.16H8.25359C7.60619 128.16 7.07935 127.636 7.07935 126.985V112.069C7.07935 111.419 7.60619 110.892 8.25359 110.892H14.9325V92.0285C14.9325 91.3789 15.4594 90.8535 16.108 90.8535C16.7566 90.8535 17.2822 91.3789 17.2822 92.0285V112.067C17.2822 112.716 16.7554 113.241 16.108 113.241H9.42783V125.811H20.8375V118.217H14.3261V120.837H17.5776V120.838ZM17.5776 14.3358C18.225 14.3358 18.7506 14.8624 18.7506 15.5107C18.7506 16.159 18.225 16.6856 17.5776 16.6856H14.3261V19.3042H20.8387V11.7112H9.42904V24.2787H16.1092C16.7578 24.2787 17.2834 24.8041 17.2834 25.4537V45.4938C17.2834 46.1422 16.7566 46.6676 16.1092 46.6676C15.4606 46.6676 14.9337 46.1422 14.9337 45.4938V26.6262H8.25479C7.60739 26.6262 7.08055 26.1008 7.08055 25.4525V10.535C7.08055 9.88548 7.60739 9.36008 8.25479 9.36008H22.0153C22.6639 9.36008 23.1908 9.88548 23.1908 10.535V20.4768C23.1908 21.1251 22.6639 21.6517 22.0153 21.6517H13.1567C12.5105 21.6517 11.9837 21.1239 11.9837 20.4768V15.5095C11.9837 14.8612 12.5093 14.3346 13.1579 14.3346H17.5776V14.3358ZM114.663 16.6844C114.013 16.6844 113.489 16.1578 113.489 15.5095C113.489 14.8612 114.013 14.3346 114.663 14.3346H119.084C119.734 14.3346 120.257 14.8612 120.257 15.5095V20.4768C120.257 21.1227 119.73 21.6481 119.084 21.6481H110.227C109.577 21.6481 109.051 21.1251 109.051 20.4768V10.535C109.051 9.88548 109.577 9.36008 110.227 9.36008H123.985C124.635 9.36008 125.16 9.88548 125.16 10.535V25.4513C125.16 26.0996 124.633 26.625 123.985 26.625H117.306V45.4914C117.306 46.1397 116.779 46.6651 116.132 46.6651C115.482 46.6651 114.957 46.1397 114.957 45.4914V25.4513C114.957 24.8017 115.483 24.2763 116.132 24.2763H122.812V11.7099H111.4V19.303H117.914V16.6844H114.663ZM114.663 123.185C114.013 123.185 113.489 122.659 113.489 122.01C113.489 121.361 114.013 120.838 114.663 120.838H117.914V118.218H111.4V125.812H122.812V113.242H116.132C115.482 113.242 114.957 112.717 114.957 112.069V92.0297C114.957 91.3801 115.483 90.8547 116.132 90.8547C116.78 90.8547 117.306 91.3801 117.306 92.0297V110.894H123.985C124.635 110.894 125.16 111.42 125.16 112.07V126.986C125.16 127.636 124.633 128.161 123.985 128.161H110.227C109.577 128.161 109.051 127.637 109.051 126.986V117.043C109.051 116.396 109.577 115.871 110.227 115.871H119.084C119.73 115.871 120.257 116.398 120.257 117.043V122.012C120.257 122.66 119.734 123.187 119.084 123.187H114.663V123.185Z" fill="#539E83"/>
<path fill-rule="evenodd" clip-rule="evenodd" d="M37.3906 8.93496C38.804 8.92873 40.2186 8.925 41.6392 8.92002C41.9267 8.91878 42.1167 8.95238 42.2069 9.02703C42.2911 9.09671 42.3356 9.27961 42.3356 9.57449C42.3356 9.84075 42.3044 10.0286 42.2442 10.1356C42.1829 10.2439 42.0325 10.3471 41.798 10.4492C41.5874 10.535 41.4503 10.6321 41.3902 10.7279C41.336 10.8274 41.3072 10.9854 41.3072 11.2094C41.3072 13.2773 41.3072 21.5377 41.3072 23.6031C41.3072 23.7822 41.3288 23.9091 41.383 23.985C41.4275 24.0597 41.5634 24.1219 41.7835 24.1704C42.0842 24.2364 42.237 24.3745 42.237 24.5885C42.237 25.1247 42.2141 25.4296 42.1757 25.493C42.1384 25.559 41.994 25.6162 41.7607 25.666C39.9756 26.038 38.1917 26.4125 36.4078 26.8505C36.1816 26.9065 36.0674 26.7522 36.0674 26.3864C36.0674 26.0716 36.0722 25.8402 36.0974 25.6859C36.1239 25.5229 36.2707 25.3686 36.5425 25.2106C36.8444 25.0339 36.996 24.8012 36.996 24.525C36.996 22.9797 36.996 16.7972 36.996 15.2494C36.6327 16.5384 35.182 21.8089 34.826 23.1551C34.3881 23.2373 33.9503 23.3231 33.5112 23.4077C33.1552 22.2083 31.7333 17.2961 31.3857 16.0345C31.3857 17.6557 31.3857 24.148 31.3857 25.7717C31.3857 26.089 31.5289 26.2893 31.8103 26.3652C32.1652 26.4473 32.3384 26.7036 32.3384 27.1404C32.3384 27.6418 32.1652 27.9429 31.8175 28.0412C30.9491 28.29 30.0854 28.5351 29.2241 28.7827C28.9354 28.8649 28.7851 28.6583 28.7851 28.1544C28.7851 27.7986 28.9053 27.5 29.1555 27.2412C29.336 27.0396 29.4515 26.8841 29.5032 26.782C29.5477 26.6725 29.5718 26.5033 29.5718 26.2669C29.5718 23.9154 29.5718 14.5016 29.5718 12.15C29.5718 11.7556 29.5345 11.4582 29.4659 11.2567C29.4045 11.0489 29.2542 10.8834 29.0341 10.7602C28.7923 10.6371 28.6792 10.5027 28.6792 10.3646C28.6792 10.1879 28.6792 10.0112 28.6864 9.83204C28.6936 9.44882 28.7165 9.20744 28.7622 9.11412C28.8079 9.01832 28.9138 8.97229 29.0882 8.9698C30.5629 8.96233 32.0365 8.95611 33.5112 8.94989C33.8288 10.1319 35.1063 14.7542 35.431 15.8852C35.7582 14.7044 37.3906 8.93496 37.3906 8.93496ZM48.3297 10.0933C48.3297 11.0165 48.3297 14.7069 48.3297 15.6313C48.6087 15.6152 48.889 15.599 49.1681 15.5828C49.3942 15.5691 49.5614 15.5206 49.6745 15.4385C49.7803 15.3539 49.8646 15.1822 49.9163 14.9234C50.0137 14.463 50.0895 14.1893 50.1424 14.096C50.2038 14.0052 50.3012 13.9554 50.4299 13.9479C51.0494 13.9193 51.397 13.9255 51.4885 13.9628C51.563 14.0002 51.6087 14.1557 51.6087 14.4332C51.6087 15.482 51.6087 16.5272 51.6087 17.5736C51.6087 17.7714 51.5642 17.9033 51.4885 17.9655C51.4055 18.0339 51.1625 18.0812 50.7475 18.1148C50.4828 18.136 50.3012 18.1136 50.211 18.0389C50.1196 17.9667 50.0306 17.7502 49.9379 17.3882C49.8477 17.0572 49.7647 16.8569 49.6805 16.7847C49.5903 16.7175 49.4616 16.6864 49.2811 16.6989C48.9636 16.72 48.646 16.7412 48.3285 16.7623C48.3285 17.8747 48.3285 22.3203 48.3285 23.4314C48.5402 23.4052 48.7507 23.3791 48.9624 23.353C49.3629 23.3032 49.6348 23.1825 49.7876 22.9897C49.9307 22.7943 50.1725 22.2668 50.5057 21.3971C50.6428 21.0362 50.7775 20.7936 50.9219 20.6729C51.065 20.5497 51.3152 20.4726 51.6773 20.434C52.1693 20.3843 52.4183 20.4925 52.4183 20.7401C52.4183 20.8185 52.4039 20.9267 52.3642 21.0723C52.2138 21.7952 52.0622 22.5218 51.9191 23.2497C51.8433 23.6479 51.7747 23.8905 51.7218 23.9738C51.6761 24.0622 51.5101 24.1207 51.2467 24.1567C48.5775 24.5113 45.9155 24.9157 43.2559 25.3736C43.0598 25.4072 42.9227 25.3922 42.8697 25.3226C42.8168 25.2541 42.7867 25.0314 42.7867 24.6532C42.7867 24.4143 42.9299 24.2177 43.2114 24.0659C43.6492 23.8395 43.8681 23.5943 43.8681 23.3256C43.8681 21.2179 43.8681 12.7858 43.8681 10.6781C43.8609 10.55 43.6793 10.4268 43.3244 10.3024C43.0887 10.2202 42.9467 10.1394 42.8998 10.056C42.8553 9.97388 42.8409 9.77854 42.8409 9.46499C42.8409 9.20371 42.8625 9.04196 42.907 8.99344C42.9539 8.93994 43.0959 8.91505 43.3244 8.91505C45.8794 8.90883 48.4343 8.90012 50.9905 8.89638C51.1781 8.89514 51.3164 8.92127 51.4055 8.96855C51.4969 9.02081 51.5642 9.13901 51.6087 9.32938C51.8132 10.1381 52.0177 10.9444 52.2222 11.7469C52.2523 11.8738 52.2667 11.9559 52.2667 12.0007C52.2667 12.1687 52.0791 12.257 51.6917 12.2695C51.2611 12.2832 50.9664 12.2533 50.8305 12.1749C50.6861 12.1027 50.543 11.9074 50.4071 11.5939C50.1581 11.0265 49.9379 10.6308 49.7563 10.4118C49.5747 10.1891 49.3702 10.0784 49.1512 10.0821C48.8746 10.0859 48.3297 10.0933 48.3297 10.0933ZM59.193 13.1591C59.525 12.6465 59.857 12.1351 60.1974 11.6237C60.6665 10.8983 60.9011 10.4678 60.9011 10.3248C60.9011 10.2053 60.7808 10.1107 60.5547 10.0411C60.3502 9.97512 60.2443 9.81089 60.2443 9.55458C60.2443 9.26219 60.2587 9.07929 60.2972 8.99841C60.3345 8.92251 60.4332 8.88145 60.6004 8.88145C61.5146 8.88145 62.4372 8.88145 63.3598 8.88145C63.5571 8.88145 63.6473 8.9586 63.6473 9.12035C63.6473 9.33062 63.6473 9.54089 63.6473 9.74743C63.6473 9.86937 63.5414 9.98259 63.3141 10.0883C63.088 10.1941 62.9484 10.2924 62.8919 10.3845C62.4131 11.1397 60.5174 14.1992 60.0482 14.9719C60.5547 16.0482 62.5803 20.3345 63.0867 21.4083C63.1842 21.5974 63.2528 21.7206 63.2985 21.7753C63.3442 21.8238 63.4428 21.8835 63.6088 21.9495C63.7977 22.0217 63.9264 22.0926 63.9781 22.161C64.0382 22.2282 64.0695 22.3501 64.0695 22.5368C64.0695 22.8018 64.0394 22.9921 63.9781 23.1054C63.9179 23.2186 63.7904 23.2783 63.5932 23.282C61.9007 23.3144 60.2058 23.4002 58.5206 23.4936C58.2631 23.5073 58.1356 23.4301 58.1356 23.2621C58.1356 23.0668 58.1356 22.8715 58.1356 22.6774C58.1356 22.492 58.2487 22.3489 58.4833 22.2357C58.7395 22.11 58.8682 21.9769 58.8682 21.8388C58.8682 21.6671 58.8165 21.4779 58.7178 21.2652C58.3473 20.5 57.9841 19.7298 57.622 18.9584C57.1384 19.7646 56.6537 20.5821 56.1701 21.4107C55.9728 21.7392 55.8742 21.9719 55.8742 22.1125C55.8742 22.2282 56.0186 22.3451 56.3133 22.4596C56.3818 22.4845 56.4348 22.5144 56.4805 22.5517C56.525 22.584 56.549 22.7607 56.549 23.068C56.549 23.3343 56.5346 23.4973 56.4961 23.5508C56.4588 23.6018 56.3602 23.6342 56.2086 23.6478C55.2487 23.7387 54.2876 23.8295 53.3289 23.9203C53.0787 23.944 52.9584 23.8706 52.9584 23.6964C52.9584 23.4662 52.9584 23.2348 52.9584 23.0046C52.9584 22.8951 53.0871 22.7769 53.3505 22.6388C53.561 22.538 53.7282 22.4198 53.8341 22.2917C53.9412 22.166 54.0987 21.9209 54.302 21.5588C54.7182 20.8247 56.3818 17.9132 56.7968 17.1953C56.2904 16.1241 54.2792 11.7668 53.7812 10.6607C53.6681 10.4206 53.4624 10.2066 53.1617 10.0137C53.0173 9.93158 52.9415 9.83951 52.9415 9.74743C52.9415 9.55831 52.9415 9.37043 52.9415 9.17882C52.9415 8.98597 53.1015 8.89016 53.4107 8.88892C55.0815 8.88519 56.7523 8.8827 58.4303 8.88021C58.6264 8.88021 58.7251 8.96855 58.7251 9.14025C58.7251 9.34804 58.7251 9.55458 58.7251 9.75987C58.7251 9.92411 58.6036 10.0373 58.3774 10.1045C58.1284 10.1804 58.0069 10.2725 58.0069 10.3882C58.0069 10.5437 58.0671 10.7478 58.197 11.0103C58.5266 11.7332 59.193 13.1591 59.193 13.1591ZM64.8009 9.62426C64.8009 9.46873 64.8009 9.31195 64.8009 9.15394C64.8009 8.97104 64.9308 8.87897 65.1942 8.87897C67.0996 8.87897 69.0122 8.88145 70.9248 8.88145C71.1449 8.88145 71.2808 8.90261 71.3494 8.94491C71.4108 8.98597 71.4396 9.11164 71.4396 9.32067C71.4396 9.6367 71.418 9.83577 71.3723 9.91167C71.3254 9.98757 71.2279 10.0361 71.0776 10.0535C70.5844 10.117 70.3366 10.3559 70.3366 10.7615C70.3366 12.5556 70.3366 19.7323 70.3366 21.5265C70.3366 21.7504 70.5182 21.9333 70.8731 22.0727C71.1064 22.1585 71.2508 22.2419 71.2953 22.3066C71.3422 22.375 71.3638 22.4857 71.3638 22.6438C71.3638 22.7582 71.3638 22.8739 71.3638 22.9872C71.3638 23.1738 71.3422 23.2808 71.2953 23.3007C71.2508 23.3194 71.1221 23.3206 70.9248 23.3169C68.9749 23.2771 67.0322 23.241 65.0896 23.2547C64.8622 23.2572 64.7491 23.1937 64.7491 23.0643C64.7491 22.6375 64.772 22.3763 64.8093 22.278C64.8478 22.1809 64.9909 22.1075 65.2255 22.0503C65.6646 21.9545 65.875 21.779 65.875 21.5314C65.875 19.7696 65.875 12.7261 65.875 10.9643C65.875 10.7142 65.8378 10.5251 65.762 10.3982C65.6778 10.2712 65.5034 10.1642 65.2315 10.0846C65.0342 10.0187 64.9067 9.96268 64.861 9.91167C64.8177 9.86315 64.8009 9.76734 64.8009 9.62426ZM79.8924 8.64132C80.0969 8.64132 80.3001 8.64132 80.5118 8.64132C80.655 8.64132 80.7608 8.68487 80.8366 8.77321C80.904 8.85657 80.9569 9.08302 80.9882 9.45504C81.0796 10.4641 81.1698 11.4781 81.26 12.4934C81.2745 12.5556 81.2745 12.6166 81.2745 12.6738C81.2745 12.8928 81.2288 13.0446 81.1313 13.1292C81.0327 13.2113 80.8438 13.2474 80.5564 13.2387C80.2015 13.2263 79.9597 13.1516 79.8238 13.0048C79.6879 12.8567 79.5519 12.5146 79.4232 11.9758C79.1057 10.6147 78.6522 9.93655 78.0555 9.93158C77.5648 9.92784 77.3218 10.4056 77.3218 11.3699C77.3218 13.0956 77.3218 20.001 77.3218 21.7268C77.3218 22.4123 77.5804 22.7756 78.1012 22.8229C78.7592 22.8814 79.1285 22.3364 79.2043 21.183C79.2344 20.8521 79.3114 20.6207 79.4617 20.5012C79.6049 20.383 79.9008 20.3395 80.3386 20.3718C80.6791 20.398 80.9052 20.4714 81.0411 20.5809C81.1783 20.6953 81.2372 20.8931 81.2372 21.1719C81.2372 22.0714 80.8956 22.7744 80.2171 23.2932C79.5279 23.8196 78.675 24.0311 77.6622 23.9353C76.6722 23.8407 75.8025 23.5209 75.0543 22.9984C74.3061 22.477 73.6638 21.6235 73.1117 20.4328C72.8386 19.8393 72.6353 19.1699 72.4994 18.4209C72.3635 17.6744 72.2949 16.8507 72.2949 15.9436C72.2949 15.0901 72.355 14.3199 72.4681 13.6431C72.5812 12.9625 72.7544 12.364 72.9829 11.8551C73.4425 10.8324 74.0259 10.046 74.7356 9.48863C75.4477 8.92874 76.2705 8.6463 77.2231 8.64008C77.7897 8.64008 78.2901 8.76326 78.7123 9.00339C78.8723 9.08924 78.9926 9.13154 79.0672 9.13154C79.1658 9.13154 79.3017 9.04694 79.4774 8.87399C79.6265 8.71971 79.7624 8.64132 79.8924 8.64132ZM87.6173 21.616C86.6201 21.4817 85.6217 21.351 84.633 21.2365C84.5885 21.5277 84.5415 21.8176 84.4958 22.1063C84.4958 22.1274 84.4886 22.156 84.467 22.1921C84.4056 22.3713 84.3755 22.533 84.3755 22.6811C84.3755 22.9125 84.5572 23.1327 84.9265 23.3405C85.1225 23.4488 85.244 23.5533 85.2982 23.6516C85.3355 23.7461 85.3655 23.9004 85.3655 24.1119C85.3655 24.3795 85.3499 24.5375 85.3126 24.5872C85.2753 24.637 85.1911 24.6507 85.0552 24.632C84.0051 24.4952 82.9537 24.3558 81.9036 24.2152C81.7292 24.1928 81.6378 24.0373 81.6378 23.7449C81.6378 23.399 81.7809 23.134 82.0624 22.9548C82.3258 22.7868 82.4774 22.5952 82.5231 22.38C82.8864 20.5435 84.3671 13.0882 84.7388 11.1932C84.7845 11.019 84.8002 10.8672 84.8002 10.7378C84.8002 10.5363 84.6257 10.3559 84.2853 10.1966C84.1265 10.1182 84.0435 9.94526 84.0435 9.68149C84.0435 9.32937 84.0664 9.10791 84.1121 9.02454C84.1578 8.94491 84.2925 8.90261 84.497 8.90261C86.0163 8.9051 87.544 8.91007 89.0704 8.91505C89.3507 8.91505 89.5468 9.02827 89.6611 9.25597C89.7741 9.47744 89.88 9.96766 89.993 10.7291C90.0388 11.024 91.7709 21.2565 92.1017 23.2323C92.1931 23.8108 92.4277 24.2836 92.791 24.6482C92.8884 24.7428 92.957 24.8174 92.9858 24.8722C93.0159 24.9232 93.0328 25.0625 93.0328 25.2989C93.0328 25.6622 93.0027 25.8762 92.9486 25.9459C92.8956 26.0193 92.7729 26.0343 92.5937 25.9969C90.8231 25.6336 89.0536 25.3027 87.2938 25.0028C87.1338 24.9767 87.052 24.8373 87.052 24.586C87.052 24.2687 87.0748 24.0696 87.1133 23.9975C87.1578 23.9216 87.2709 23.8494 87.461 23.7698C87.7472 23.6665 87.8916 23.4985 87.8916 23.2746C87.8904 23.0419 87.799 22.4907 87.6173 21.616ZM86.1811 12.6328C85.9549 13.8969 85.0552 18.9012 84.8362 20.1429C85.7216 20.2399 86.6057 20.3469 87.491 20.4552C87.2697 19.1363 86.1811 12.6328 86.1811 12.6328ZM96.6054 16.7151C96.6054 18.024 96.6054 23.2584 96.6054 24.5673C96.6054 24.8933 96.811 25.1832 97.2104 25.4346C97.5436 25.651 97.7096 25.8924 97.7096 26.1587C97.7096 26.7099 97.6952 27.0097 97.6711 27.0645C97.6423 27.1155 97.5196 27.118 97.3151 27.0694C96.2565 26.8107 95.1992 26.5494 94.1478 26.3179C93.9903 26.2831 93.8832 26.2072 93.8543 26.0927C93.8086 25.9708 93.793 25.6971 93.793 25.2566C93.793 25.06 93.8988 24.9344 94.1094 24.897C94.5183 24.8112 94.7216 24.6606 94.7216 24.4541C94.7216 22.3178 94.7216 13.775 94.7216 11.6374C94.7216 11.3276 94.6855 11.0937 94.623 10.9357C94.564 10.7801 94.4269 10.6445 94.208 10.5412C94.0131 10.4479 93.882 10.3534 93.8158 10.2526C93.7473 10.1481 93.7172 9.95895 93.7172 9.68025C93.7172 9.17883 93.8604 8.92749 94.1563 8.92874C95.2521 8.93371 96.3491 8.93745 97.4438 8.94118C98.1162 10.433 98.7958 11.9472 99.4622 13.4913C100.141 15.0652 100.807 16.674 101.481 18.3126C101.481 17.1617 101.481 12.5594 101.481 11.406C101.481 11.024 101.291 10.7403 100.9 10.5724C100.672 10.4678 100.522 10.3471 100.453 10.2128C100.385 10.0834 100.356 9.83079 100.356 9.45504C100.356 9.21864 100.378 9.07928 100.431 9.02827C100.476 8.97353 100.566 8.95362 100.704 8.95362C101.799 8.9586 102.896 8.96233 104 8.96731C104.188 8.99219 104.28 9.26343 104.28 9.77854C104.28 10.0821 104.257 10.2737 104.218 10.3571C104.188 10.4355 104.107 10.5002 103.978 10.5587C103.698 10.6619 103.524 10.7702 103.449 10.8722C103.38 10.9792 103.343 11.1248 103.343 11.3089C103.343 14.2042 103.343 25.7792 103.343 28.6708C102.663 28.4791 101.982 28.2888 101.303 28.0984C100.516 26.089 99.7365 24.1194 98.9498 22.2108C98.1787 20.3457 97.3836 18.5142 96.6054 16.7151Z" fill="#2B4B3F"/>
<path fill-rule="evenodd" clip-rule="evenodd" d="M94.5095 48.9604C88.0561 46.4228 96.8003 45.0739 88.9235 43.9424C81.7614 42.9131 91.2858 40.3354 91.8891 38.0033C93.3913 32.2087 47.3601 46.3062 54.6663 26.6402C56.9062 38.8576 101.298 26.6973 98.3825 37.8708C97.7767 40.192 86.0717 42.4221 93.8117 43.5207C99.835 44.3763 90.5117 46.4265 94.5095 48.9604Z" fill="#539E83"/>
<path fill-rule="evenodd" clip-rule="evenodd" d="M5.80342 31.377C5.36741 31.377 5.01438 31.7257 5.01438 32.1538C5.01438 32.5832 5.36741 32.9319 5.80342 32.9319H7.98103V34.6665H3.61466V29.6363H11.2635V37.9609H6.78694C6.35092 37.9609 6.00037 38.3095 6.00037 38.7377V62.5825C6.00037 63.0119 6.35216 63.3605 6.78694 63.3605C7.22172 63.3605 7.5735 63.0119 7.5735 62.5825V39.517H12.0513C12.4874 39.517 12.8391 39.1683 12.8391 38.7377V28.8582C12.8391 28.4289 12.4874 28.0802 12.0513 28.0802H2.8281C2.39209 28.0802 2.03906 28.4289 2.03906 28.8582V35.4433C2.03906 35.8727 2.39209 36.2214 2.8281 36.2214H8.76636C9.19866 36.2214 9.55168 35.8715 9.55168 35.4433V32.1526C9.55168 31.7245 9.20113 31.3758 8.76636 31.3758H5.80342V31.377Z" fill="#D0E3DC"/>
<path fill-rule="evenodd" clip-rule="evenodd" d="M5.80342 105.509C5.36741 105.509 5.01438 105.169 5.01438 104.75C5.01438 104.33 5.36741 103.991 5.80342 103.991H7.98103V102.3H3.61466V107.204H11.2635V99.0855H6.78694C6.35092 99.0855 6.00037 98.7454 6.00037 98.3267V74.9194C6.00037 74.5006 6.35216 74.1606 6.78694 74.1606C7.22172 74.1606 7.5735 74.5006 7.5735 74.9194V97.5678H12.0513C12.4874 97.5678 12.8391 97.9079 12.8391 98.3267V107.962C12.8391 108.382 12.4874 108.721 12.0513 108.721H2.8281C2.39209 108.721 2.03906 108.381 2.03906 107.962V101.54C2.03906 101.121 2.39209 100.782 2.8281 100.782H8.76636C9.19866 100.782 9.55168 101.123 9.55168 101.54V104.749C9.55168 105.168 9.20113 105.508 8.76636 105.508H5.80342V105.509Z" fill="#D0E3DC"/>
<path fill-rule="evenodd" clip-rule="evenodd" d="M126.438 31.3671C126.874 31.3671 127.225 31.7147 127.225 32.1415C127.225 32.5696 126.873 32.9172 126.438 32.9172H124.259V34.6466H128.626V29.6316H120.976V37.931H125.454C125.888 37.931 126.241 38.2786 126.241 38.7054V55.3848C126.241 55.8129 125.888 56.1604 125.454 56.1604C125.019 56.1604 124.666 55.8129 124.666 55.3848V39.4823H120.189C119.753 39.4823 119.4 39.1347 119.4 38.7054V28.8559C119.4 28.4278 119.753 28.0802 120.189 28.0802H129.414C129.847 28.0802 130.2 28.4278 130.2 28.8559V35.421C130.2 35.8491 129.847 36.1967 129.414 36.1967H123.475C123.041 36.1967 122.689 35.8479 122.689 35.421V32.1403C122.689 31.7134 123.04 31.3658 123.475 31.3658H126.438V31.3671Z" fill="#D0E3DC"/>
<path fill-rule="evenodd" clip-rule="evenodd" d="M126.438 105.523C126.874 105.523 127.225 105.185 127.225 104.768C127.225 104.35 126.873 104.012 126.438 104.012H124.259V102.328H128.626V107.211H120.976V99.1282H125.454C125.888 99.1282 126.241 98.7897 126.241 98.3727V79.2349C126.241 78.818 125.888 78.4806 125.454 78.4806C125.019 78.4806 124.666 78.818 124.666 79.2349V97.6173H120.189C119.753 97.6173 119.4 97.9558 119.4 98.3727V107.965C119.4 108.384 119.753 108.721 120.189 108.721H129.414C129.847 108.721 130.2 108.382 130.2 107.965V101.571C130.2 101.155 129.847 100.817 129.414 100.817H123.475C123.041 100.817 122.689 101.157 122.689 101.571V104.767C122.689 105.184 123.04 105.522 123.475 105.522H126.438V105.523Z" fill="#D0E3DC"/>
<path fill-rule="evenodd" clip-rule="evenodd" d="M103.857 114.326C103.857 114.093 103.659 113.905 103.417 113.905C103.175 113.905 102.978 114.093 102.978 114.326V115.488H101.997V113.159H104.841V117.24H100.134V114.851C100.134 114.62 99.9373 114.432 99.6942 114.432H32.545C32.3019 114.432 32.1048 114.62 32.1048 114.851V117.24H27.3986V113.16H30.2421V115.489H29.26V114.327C29.26 114.095 29.0629 113.906 28.821 113.906C28.5791 113.906 28.3819 114.095 28.3819 114.327V115.907C28.3819 116.14 28.5791 116.328 28.821 116.328H30.6812C30.9231 116.328 31.119 116.139 31.119 115.907V112.74C31.119 112.508 30.9243 112.321 30.6812 112.321H26.9571C26.7152 112.321 26.5193 112.508 26.5193 112.74V117.66C26.5193 117.891 26.7152 118.081 26.9571 118.081H32.5438C32.7869 118.081 32.9841 117.891 32.9841 117.66V115.271H99.2539V117.66C99.2539 117.891 99.4511 118.081 99.6942 118.081H105.28C105.523 118.081 105.72 117.891 105.72 117.66V112.74C105.72 112.508 105.523 112.321 105.28 112.321H101.557C101.314 112.321 101.118 112.508 101.118 112.74V115.907C101.118 116.139 101.315 116.328 101.557 116.328H103.417C103.659 116.328 103.857 116.14 103.857 115.907V114.326Z" fill="#D0E3DC"/>
<path fill-rule="evenodd" clip-rule="evenodd" d="M103.857 3.75339C103.857 3.98559 103.659 4.1739 103.417 4.1739C103.175 4.1739 102.978 3.98675 102.978 3.75339V2.59121H101.997V4.92019H104.841V0.841021H100.134V3.22891C100.134 3.45996 99.9373 3.64942 99.6942 3.64942H32.545C32.3019 3.64942 32.1048 3.46111 32.1048 3.22891V0.841021H27.3986V4.92019H30.2421V2.59121H29.26V3.75339C29.26 3.98559 29.0629 4.1739 28.821 4.1739C28.5791 4.1739 28.3819 3.98675 28.3819 3.75339V2.17301C28.3819 1.94081 28.5791 1.7525 28.821 1.7525H30.6812C30.9231 1.7525 31.119 1.94081 31.119 2.17186V5.33954C31.119 5.57175 30.9243 5.76005 30.6812 5.76005H26.9571C26.7152 5.76005 26.5193 5.57175 26.5193 5.33954V0.420511C26.5193 0.188306 26.7152 0 26.9571 0H32.5438C32.7869 0 32.9841 0.188306 32.9841 0.420511V2.8084H99.2539V0.420511C99.2539 0.188306 99.4511 0 99.6942 0H105.28C105.523 0 105.72 0.188306 105.72 0.420511V5.33954C105.72 5.57175 105.523 5.76005 105.28 5.76005H101.557C101.314 5.76005 101.118 5.57175 101.118 5.33954V2.17186C101.118 1.94081 101.315 1.7525 101.557 1.7525H103.417C103.659 1.7525 103.857 1.94081 103.857 2.17301V3.75339Z" fill="#D0E3DC"/>
</svg>
